<svg width="580" height="400" xmlns="http://www.w3.org/2000/svg">
 <!-- Created with Method Draw - http://github.com/duopixel/Method-Draw/ -->
 <g>
  <title>background</title>
  <rect fill="#fff" id="canvas_background" height="402" width="582" y="-1" x="-1"/>
 </g>
 <g>
  <title>Layer 1</title>
  <path stroke="#000" stroke-dasharray="2,2" id="svg_3" d="m338.46695,110.420002c-15.264791,11.058121 -36.363584,11.16546 -51.744317,0.329686c-14.792932,10.425379 -34.883554,10.723813 -49.979715,0.894917l-27.144928,26.126979c16.697934,16.36247 16.600883,42.651505 -0.285341,58.901793c-2.24111,5.548167 -3.415691,5.280625 -3.660183,10.867856c-0.574988,13.451725 2.792186,26.000467 13.339249,35.451519c9.421632,8.442433 22.207182,12.023042 34.488709,10.745484c20.508641,1.01984 30.340636,9.568659 34.466179,14.681775c5.570773,-5.46332 14.233835,-14.246227 40.563465,-15.341116c15.717681,-2.183495 21.397709,-5.710927 28.774359,-12.232522c9.928769,-8.896863 13.400502,-20.162939 13.107895,-32.680635c-0.121508,-5.196735 -0.782223,-7.00346 -4.044583,-13.638788c-16.964537,-16.325634 -16.976877,-42.785157 -0.045031,-59.130535l-27.835758,-24.976414z" stroke-opacity="null" stroke-width="0" fill="#007f00"/>
  <text font-weight="bold" style="cursor: move;" stroke="#000" transform="matrix(1.6284877100716784,0,0,1,-192.1472734819884,0) " xml:space="preserve" text-anchor="start" font-family="'League Gothic', sans-serif" font-size="24" id="svg_4" y="193" x="260.891977" stroke-opacity="null" stroke-width="0" fill="#4caa4c">MAVG</text>
 </g>
</svg>